<svg xmlns="http://www.w3.org/2000/svg" width="146.508" height="32.073" viewBox="0 0 146.508 32.073">
  <defs>
    <style>
      .cls-1 {
        fill: #fff;
      }
    </style>
  </defs>
  <path id="einna.tr" class="cls-1" d="M96.991,52.455a11.38,11.38,0,0,1-3.183-8.22,11.79,11.79,0,0,1,3-8.2,10.27,10.27,0,0,1,7.938-3.424,10.147,10.147,0,0,1,7.565,3.1,10.528,10.528,0,0,1,3.032,7.655,2.464,2.464,0,0,1-.886,2.217,4.642,4.642,0,0,1-2.337.423H100.5q.463,3.888,4.916,3.888a10.462,10.462,0,0,0,4.019-1.057,13.388,13.388,0,0,1,2.831-1.057,2.6,2.6,0,0,1,1.864.695,2.4,2.4,0,0,1,.735,1.823q0,2.075-2.9,3.767a13.434,13.434,0,0,1-6.89,1.692A10.735,10.735,0,0,1,96.991,52.455Zm4.916-13.488a4.916,4.916,0,0,0-1.491,2.791H109a3.993,3.993,0,0,0-1.33-2.77,4.135,4.135,0,0,0-2.881-1.1A4.09,4.09,0,0,0,101.907,38.966Zm77.545,13.126a12.45,12.45,0,0,1-2.579-7.9,12.14,12.14,0,0,1,2.72-7.938,9.12,9.12,0,0,1,7.394-3.566,6.389,6.389,0,0,1,5.2,2.317,3.439,3.439,0,0,1,3.1-2.075q3.2,0,3.2,4.714V50.722q0,4.734-3.2,4.735a3.285,3.285,0,0,1-3.1-2.256,6.644,6.644,0,0,1-5.44,2.478A8.861,8.861,0,0,1,179.452,52.092Zm5.179-11.544a6.01,6.01,0,0,0-1.028,3.567,6.354,6.354,0,0,0,.987,3.626,3.674,3.674,0,0,0,3.223,1.692A3.628,3.628,0,0,0,191,47.721a6.388,6.388,0,0,0,.987-3.606,6.029,6.029,0,0,0-1.028-3.546,3.627,3.627,0,0,0-3.143-1.652A3.678,3.678,0,0,0,184.631,40.548Zm41.623,10.174V37.647q0-4.714,3.244-4.714a3.467,3.467,0,0,1,3.1,2.075,5.974,5.974,0,0,1,4.413-2.2,3.228,3.228,0,0,1,2.327.948,3.055,3.055,0,0,1,.977,2.276,2.688,2.688,0,0,1-1.571,2.317q-.4.243-3.183,1.371a4.839,4.839,0,0,0-2.4,1.632,5.844,5.844,0,0,0-.4,2.6v6.769q0,4.734-3.263,4.735Q226.253,55.457,226.254,50.722Zm-12.471,0V39.2q-3.868,0-3.868-2.8,0-2.659,3.868-2.9V31.22q0-5.3,3.284-5.3,3.244,0,3.244,5.3v2.3q4.653,0,4.654,2.881,0,2.8-4.654,2.8V50.722q0,4.734-3.244,4.735Q213.782,55.457,213.782,50.722Zm-10.92,3.657a3.794,3.794,0,0,1,.01-5.329,3.652,3.652,0,0,1,2.67-1.088,3.546,3.546,0,0,1,2.629,1.1,3.822,3.822,0,0,1,.01,5.309,3.55,3.55,0,0,1-2.639,1.088A3.657,3.657,0,0,1,202.863,54.379Zm-35.539-3.657V43.368a8.052,8.052,0,0,0-.563-3.444,3,3,0,0,0-2.942-1.592q-3.465,0-3.465,4.956v7.434q0,4.734-3.263,4.735-3.244,0-3.244-4.735V37.647q0-4.714,3.244-4.714a3.468,3.468,0,0,1,3.1,2.075,7.363,7.363,0,0,1,5.742-2.2q7.918,0,7.917,8.583v9.328q0,4.734-3.263,4.735T167.324,50.722Zm-24.3,0V43.368a8.049,8.049,0,0,0-.564-3.444,3,3,0,0,0-2.941-1.592q-3.465,0-3.466,4.956v7.434q0,4.734-3.263,4.735-3.244,0-3.244-4.735V37.647q0-4.714,3.244-4.714a3.468,3.468,0,0,1,3.1,2.075,7.365,7.365,0,0,1,5.742-2.2q7.918,0,7.917,8.583v9.328q0,4.734-3.263,4.735T143.027,50.722Zm-24.619,0V37.647q0-4.714,3.263-4.714,3.2,0,3.2,4.714V50.722q0,4.734-3.2,4.735Q118.407,55.457,118.408,50.722Zm.584-20.6a3.772,3.772,0,0,1,2.679-6.437,3.53,3.53,0,0,1,2.629,1.108,3.833,3.833,0,0,1,.011,5.319,3.554,3.554,0,0,1-2.64,1.088A3.657,3.657,0,0,1,118.992,30.122Z" transform="translate(-93.808 -23.685)"/>
</svg>
