<svg xmlns="http://www.w3.org/2000/svg" width="41.133" height="47.988" viewBox="0 0 41.133 47.988">
  <path id="ic_Report_file.png" d="M1698.312,114.043l-8.355-8.355a7.183,7.183,0,0,0-4.392-1.821h-23.994a2.571,2.571,0,0,0-2.571,2.571v42.847a2.571,2.571,0,0,0,2.571,2.571h35.991a2.571,2.571,0,0,0,2.571-2.571v-30.85A7.183,7.183,0,0,0,1698.312,114.043Zm-11.89-6.534a3.414,3.414,0,0,1,1.1.589l8.382,8.382a3.416,3.416,0,0,1,.589,1.1h-10.069Zm10.283,40.919h-34.277V107.295h20.566v11.14a2.571,2.571,0,0,0,2.571,2.571h11.14Zm-13.765-15.88a13.974,13.974,0,0,1-3.91-6.373,31.436,31.436,0,0,0,.375-5.142v-.8a.588.588,0,0,0-.027-.214.536.536,0,0,0,.107-.214,2.126,2.126,0,0,0-.241-1.821,1.141,1.141,0,0,0-.937-.4h-.589c-.536,0-.937.4-1.125,1.071-.482,1.767-.214,4.767.643,7.686a41.02,41.02,0,0,1-2.785,7.016c-1.071,2.169-2.035,3.91-2.865,5.275a.2.2,0,0,0-.054-.107.445.445,0,0,0-.616-.161c-3.321,1.741-4.767,3.8-5.035,5.035a1.12,1.12,0,0,0,.161.964c.053.054.08.107.161.134l.643.321a1.485,1.485,0,0,0,.75.187c1.607,0,3.722-2.3,6.481-7.016a50.926,50.926,0,0,1,10.5-2.223,16.049,16.049,0,0,0,6.561,1.955c1.419,0,1.821-.536,1.9-1.018v-.027c.027-.027.054-.08.08-.107a1.357,1.357,0,0,0-.053-1.393c-.669-1.1-2.946-1.312-4.74-1.312a26.449,26.449,0,0,0-3.133.187A18.222,18.222,0,0,1,1682.94,132.548Zm-15.425,11.006a12.787,12.787,0,0,1,3.669-4.231C1669.47,142.027,1668.319,143.179,1667.516,143.554Zm10.658-24.637c0-.027.027-.054.027-.107a1.55,1.55,0,0,1,.348.964c.027.054.027.107.053.134a.8.8,0,0,0-.107.214c-.054.321-.134.7-.187,1.151-.053.348-.107.75-.187,1.178A8.332,8.332,0,0,1,1678.174,118.917Zm-3.321,17.7c.4-.723.8-1.473,1.205-2.223a34.579,34.579,0,0,0,2.223-5.275,14.258,14.258,0,0,0,3.4,4.713c.241.214.509.4.777.616A40.883,40.883,0,0,0,1674.853,136.618Zm17.3-.428c.027.027.054.053.054.08a2.183,2.183,0,0,1-.482.027,10.667,10.667,0,0,1-3.321-.75C1691.322,135.547,1692.019,136.056,1692.152,136.19Z" transform="translate(-1659 -103.867)" fill="#d50000"/>
</svg>
